<?xml version="1.0" encoding="UTF-8" standalone="no"?>
<svg
   xmlns:dc="http://purl.org/dc/elements/1.1/"
   xmlns:cc="http://creativecommons.org/ns#"
   xmlns:rdf="http://www.w3.org/1999/02/22-rdf-syntax-ns#"
   xmlns:svg="http://www.w3.org/2000/svg"
   xmlns="http://www.w3.org/2000/svg"
   xmlns:sodipodi="http://sodipodi.sourceforge.net/DTD/sodipodi-0.dtd"
   xmlns:inkscape="http://www.inkscape.org/namespaces/inkscape"
   version="1.1"
   x="0px"
   y="0px"
   viewBox="0 0 73.199997 96.400002"
   xml:space="preserve"
   id="svg50"
   sodipodi:docname="Pdf_Icon.svg"
   width="73.199997"
   height="96.400002"
   inkscape:version="1.0.1 (3bc2e813f5, 2020-09-07)"><metadata
     id="metadata56"><rdf:RDF><cc:Work
         rdf:about=""><dc:format>image/svg+xml</dc:format><dc:type
           rdf:resource="http://purl.org/dc/dcmitype/StillImage" /></cc:Work></rdf:RDF></metadata><defs
     id="defs54" /><sodipodi:namedview
     pagecolor="#ffffff"
     bordercolor="#666666"
     borderopacity="1"
     objecttolerance="10"
     gridtolerance="10"
     guidetolerance="10"
     inkscape:pageopacity="0"
     inkscape:pageshadow="2"
     inkscape:window-width="1920"
     inkscape:window-height="1002"
     id="namedview52"
     showgrid="false"
     inkscape:zoom="6.864"
     inkscape:cx="35.188811"
     inkscape:cy="47.7338"
     inkscape:window-x="-8"
     inkscape:window-y="-8"
     inkscape:window-maximized="1"
     inkscape:current-layer="svg50"
     inkscape:document-rotation="0" /><g
     id="g44"
     transform="translate(-13.5,-1.8)"><path
       d="m 32.1,38.7 c 2.8,0 4.9,-0.6 6.2,-1.8 1.4,-1.2 2,-3.1 2,-5.6 0,-2.6 -0.7,-4.5 -2,-5.7 C 37,24.4 34.9,23.7 32,23.7 h -6.7 v 20.8 h 4.2 v -5.8 z m -2.6,-11 h 2.4 c 1.4,0 2.4,0.3 3.1,0.8 0.7,0.5 1,1.4 1,2.6 0,1.2 -0.3,2.1 -0.8,2.7 -0.5,0.6 -1.5,0.9 -2.9,0.9 h -2.8 z"
       id="path34" /><path
       d="m 56.8,41.6 c 1.8,-1.9 2.6,-4.4 2.6,-7.7 0,-3.2 -0.9,-5.8 -2.7,-7.6 -1.8,-1.8 -4.4,-2.7 -7.8,-2.7 h -6.7 v 20.8 h 6.5 c 3.6,0.1 6.3,-0.9 8.1,-2.8 z m -3.2,-2.8 c -1,1.1 -2.5,1.6 -4.4,1.6 H 46.5 V 27.7 h 2.4 c 2.1,0 3.7,0.6 4.8,1.7 1,1.1 1.6,2.7 1.6,4.7 -0.1,2 -0.7,3.6 -1.7,4.7 z"
       id="path36" /><polygon
       points="61.7,23.7 61.7,44.5 65.9,44.5 65.9,36.3 74.2,36.3 74.2,32.3 65.9,32.3 65.9,27.8 74.7,27.8 74.7,23.7 "
       id="polygon38" /><path
       d="M 80.2,1.8 H 19.8 c -3.5,0 -6.3,2.8 -6.3,6.3 v 73.8 c 0,3.5 2.8,6.3 6.3,6.3 h 13.9 l -1.9,-1.9 -1.9,-1.9 h -10 c -1.4,0 -2.5,-1.1 -2.5,-2.5 V 8.1 c 0,-1.4 1.1,-2.5 2.5,-2.5 h 60.5 c 1.4,0 2.5,1.1 2.5,2.5 v 73.8 c 0,1.4 -1.1,2.5 -2.5,2.5 h -8.6 l -1.9,1.9 -1.9,1.9 h 12.4 c 3.5,0 6.3,-2.8 6.3,-6.3 V 8.1 C 86.6,4.6 83.7,1.8 80.2,1.8 Z"
       id="path40" /><polygon
       points="59,54.7 41,54.7 41,76 27.9,75.8 50.3,98.2 72.1,76.4 59,76.3 "
       id="polygon42" /></g><path
     style="fill:#ffffff;stroke-width:0.145688"
     d="M 4.8857807,86.135456 C 2.2845262,85.489854 0.50577851,83.460255 0.14620283,80.727468 0.04211575,79.936403 0.00693322,67.707732 0.03576971,42.343357 L 0.07808839,5.1201632 0.41567853,4.2842621 C 1.141527,2.4870016 2.4080386,1.1661174 4.03443,0.51015382 L 4.8857807,0.1667832 36.208625,0.12817675 C 67.031339,0.09018672 67.546589,0.09416087 68.478438,0.37707513 70.761384,1.070189 72.517946,2.9622576 72.987405,5.2338759 73.098037,5.7692032 73.133164,17.163459 73.106076,43.727389 l -0.03848,37.7331 -0.32676,0.801283 c -0.659216,1.616535 -2.063115,3.020434 -3.67965,3.67965 -0.784794,0.320036 -0.940687,0.327619 -7.575758,0.368508 l -6.774475,0.04175 1.818908,-1.826422 1.818911,-1.826422 h 4.486759 c 3.708099,0 4.579837,-0.03889 5.023079,-0.224088 0.722445,-0.301856 1.047341,-0.612476 1.365639,-1.305632 0.257465,-0.560679 0.267601,-1.998075 0.267601,-37.951631 0,-36.0230374 -0.0097,-37.3898694 -0.268957,-37.9516322 C 68.911738,4.591663 68.432994,4.1124962 67.849781,3.8915227 67.272442,3.6727749 6.0189326,3.6727749 5.4415936,3.8915227 4.8583806,4.1124962 4.379637,4.591663 4.0684793,5.2658508 3.8091866,5.8276621 3.7996373,7.1887117 3.8027176,43.144639 c 0.0034,39.713769 -0.027448,37.927526 0.6685699,38.71029 0.1478431,0.166269 0.5310433,0.422725 0.8515561,0.569906 0.5307579,0.243726 1.0508796,0.267886 5.8296924,0.2708 l 5.246941,0.0032 1.816723,1.821096 1.816724,1.821096 -7.209353,-0.01239 c -5.2138377,-0.009 -7.4109803,-0.06243 -7.9377903,-0.193179 z"
     id="path30" /><path
     style="fill:#ffffff;stroke-width:0.145688"
     d="M 11.805944,32.276669 V 21.918607 l 4.407051,0.06428 c 3.926867,0.05728 4.531703,0.09828 5.551087,0.376323 3.380936,0.922163 4.905149,3.126109 4.899848,7.084973 -0.0046,3.461146 -1.011231,5.382396 -3.407495,6.503743 -1.308127,0.612147 -2.824332,0.859296 -5.271582,0.859296 h -2.099655 v 2.913753 2.913753 h -2.039627 -2.039627 z m 8.996755,0.38133 c 1.224291,-0.500756 1.880604,-1.896946 1.749968,-3.722753 -0.09843,-1.375654 -0.519635,-2.073162 -1.560675,-2.584433 -0.749799,-0.368238 -0.966281,-0.40096 -2.957901,-0.4471 l -2.148893,-0.04978 v 3.602504 3.602505 l 2.148893,-0.07373 c 1.570323,-0.05388 2.315745,-0.141978 2.768608,-0.327206 z"
     id="path32" /><path
     style="fill:#ffffff;stroke-width:0.145688"
     d="M 28.705711,32.124301 V 21.759558 l 4.334207,0.08631 c 4.92544,0.09808 5.84609,0.230901 7.685024,1.108676 1.362887,0.650544 2.098227,1.209253 2.943728,2.236635 1.425543,1.732202 2.097567,3.953228 2.097567,6.932429 0,3.409252 -0.774336,5.678153 -2.597392,7.61069 -0.787732,0.835036 -1.21412,1.144883 -2.288744,1.663176 -2.027314,0.977778 -2.847783,1.09157 -7.870463,1.09157 h -4.303927 z m 9.416447,6.211993 c 1.546897,-0.519617 2.799015,-1.880834 3.349679,-3.641539 0.319813,-1.022577 0.426874,-3.349217 0.198649,-4.317033 -0.449533,-1.906302 -1.668224,-3.405025 -3.301249,-4.059815 -0.730188,-0.292782 -1.17152,-0.349519 -3.144004,-0.404188 l -2.294581,-0.0636 v 6.445024 6.445023 l 2.221737,-0.0763 c 1.542623,-0.05298 2.450386,-0.153108 2.969769,-0.327573 z"
     id="path35" /><path
     style="fill:#ffffff;stroke-width:0.145688"
     d="M 48.227855,32.290909 V 21.947086 h 6.483101 6.4831 v 1.966783 1.966784 h -4.443473 -4.443474 v 2.331002 2.331002 h 4.152098 4.152098 v 1.966784 1.966783 h -4.152098 -4.152098 v 4.079254 4.079254 h -2.039627 -2.039627 z"
     id="path37" /><path
     style="fill:#ffffff;stroke-width:0.145688"
     d="m 25.718751,85.162235 -11.071898,-11.085544 6.446678,0.101976 6.446679,0.101977 V 63.629599 52.978555 H 36.5 45.45979 v 10.780886 10.780885 l 2.440268,0.0195 c 1.342148,0.01072 4.227146,0.05989 6.411109,0.109266 l 3.970842,0.08977 L 47.536328,85.503319 36.79065,96.247778 Z"
     id="path39" /></svg>
